# xmcd
#
# Track frame offsets:
#	150
#	17873
#	33835
#	51310
#	79208
#	104665
#	130305
#	157698
#	178958
#	193315
#	213040
#	236118
#
# Disc length: 3466 seconds
#
# Revision: 65537002
# Processed by: cddbd v1.5.2PL0 Copyright (c) Steve Scherf et al.
# Submitted via: EZCDAudioConverter 8.0.2.1
#
DISCID=a60d880c
DTITLE=Various Artist - Dạ Vũ Nhật Trườnng
DYEAR=1988
DGENRE=World Pop
TTITLE0=Kiều Nga - Tình có như không
TTITLE1=Duy Quang, Ngọc Lan, Như Mai - Tôi đã gặp
TTITLE2=Hương Lan - Bức tâm thư
TTITLE3=Duy Quang, Ngọc Lan - Góa phụ ngầy thơ
TTITLE4=Tuấn Anh - Chuyện tình Mộng Thường
TTITLE5=Nhật Trường - Hành trang giã từ
TTITLE6=Vũ Khanh, Kiều Nga - Chiều trên phá Tam Giang
TTITLE7=Li Lian - Mười sáu trăng tròn
TTITLE8=Thúy Vi - Đôi ngả đôi ta
TTITLE9=Ngọc Lan - Tình thư của lính
TTITLE10=Nhật Trường - Lời tình viết vội
TTITLE11=Như Mai - Chuyện người đan áo
EXTD=
EXTT0=
EXTT1=
EXTT2=
EXTT3=
EXTT4=
EXTT5=
EXTT6=
EXTT7=
EXTT8=
EXTT9=
EXTT10=
EXTT11=
PLAYORDER=
